<?xml version="1.0" encoding="iso-8859-1"?>
<!-- Generator: Adobe Illustrator 19.0.0, SVG Export Plug-In . SVG Version: 6.00 Build 0)  -->
<svg version="1.1" id="Capa_1" xmlns="http://www.w3.org/2000/svg" xmlns:xlink="http://www.w3.org/1999/xlink" x="0px" y="0px"
	 viewBox="0 0 512 512" style="enable-background:new 0 0 512 512;" xml:space="preserve">
<g>
	<g>
		<path d="M378.667,49c-7.064,0-14.087,0.635-20.985,1.893C333.745,18.835,296.48,0,256,0c-40.48,0-77.745,18.835-101.682,50.893
			C147.42,49.635,140.396,49,133.333,49C69.186,49,17,101.187,17,165.333c0,27.86,10.003,54.813,28.167,75.895
			c15.125,17.554,35.088,30.144,57.166,36.248v112.857h307.334V277.476c22.078-6.103,42.041-18.693,57.166-36.248
			C484.997,220.146,495,193.193,495,165.333C495,101.187,442.813,49,378.667,49z"/>
	</g>
</g>
<g>
	<g>
		<polygon points="359.999,420.333 359.999,448 329.999,448 329.999,420.333 271,420.333 271,448 241,448 241,420.333 
			182.001,420.333 182.001,448 152.001,448 152.001,420.333 102.333,420.333 102.333,512 409.667,512 409.667,420.333 		"/>
	</g>
</g>
<g>
</g>
<g>
</g>
<g>
</g>
<g>
</g>
<g>
</g>
<g>
</g>
<g>
</g>
<g>
</g>
<g>
</g>
<g>
</g>
<g>
</g>
<g>
</g>
<g>
</g>
<g>
</g>
<g>
</g>
</svg>
