<svg id="Capa_1" enable-background="new 0 0 512 512" height="512" viewBox="0 0 512 512" width="512" xmlns="http://www.w3.org/2000/svg"><g><path d="m457 0h-402c-30.327 0-55 24.673-55 55v402c0 30.327 24.673 55 55 55h402c30.327 0 55-24.673 55-55v-402c0-30.327-24.673-55-55-55zm-427 55c0-13.785 11.215-25 25-25h402c13.785 0 25 11.215 25 25v287h-452zm452 402c0 13.785-11.215 25-25 25h-402c-13.785 0-25-11.215-25-25v-85h452z"/><path d="m76 442h205v5c0 8.284 6.716 15 15 15s15-6.716 15-15v-5h125c8.284 0 15-6.716 15-15s-6.716-15-15-15h-125v-5c0-8.284-6.716-15-15-15s-15 6.716-15 15v5h-205c-8.284 0-15 6.716-15 15s6.716 15 15 15z"/><path d="m430.232 130.609-170-50c-2.764-.813-5.702-.813-8.465 0l-170 50c-6.383 1.878-10.767 7.737-10.767 14.391s4.384 12.513 10.768 14.391l59.232 17.421v78.188c0 8.284 6.716 15 15 15h200c8.284 0 15-6.716 15-15v-78.188l40-11.765v69.953c0 8.284 6.716 15 15 15s15-6.716 15-15v-90c0-6.654-4.384-12.513-10.768-14.391zm-89.232 109.391h-170v-54.365l80.768 23.755c2.763.813 5.702.812 8.465 0l80.767-23.755zm-85-60.635-116.84-34.365 116.84-34.365 116.84 34.365z"/></g></svg>